<?xml version="1.0" encoding="UTF-8" standalone="no"?>
<svg
   xmlns:dc="http://purl.org/dc/elements/1.1/"
   xmlns:cc="http://creativecommons.org/ns#"
   xmlns:rdf="http://www.w3.org/1999/02/22-rdf-syntax-ns#"
   xmlns:svg="http://www.w3.org/2000/svg"
   xmlns="http://www.w3.org/2000/svg"
   xmlns:sodipodi="http://sodipodi.sourceforge.net/DTD/sodipodi-0.dtd"
   xmlns:inkscape="http://www.inkscape.org/namespaces/inkscape"
   width="297mm"
   height="210mm"
   viewBox="0 0 297 210"
   version="1.1"
   id="svg2469"
   inkscape:version="1.0.2-2 (e86c870879, 2021-01-15)"
   sodipodi:docname="Logo Blau nur X.svg">
  <defs
     id="defs2463">
    <clipPath
       clipPathUnits="userSpaceOnUse"
       id="clipPath32">
      <path
         d="M 0,877.591 H 1511.897 V 0 H 0 Z"
         id="path30" />
    </clipPath>
  </defs>
  <sodipodi:namedview
     id="base"
     pagecolor="#ffffff"
     bordercolor="#666666"
     borderopacity="1.0"
     inkscape:pageopacity="0.0"
     inkscape:pageshadow="2"
     inkscape:zoom="0.7"
     inkscape:cx="322.34578"
     inkscape:cy="426.46258"
     inkscape:document-units="mm"
     inkscape:current-layer="g28"
     inkscape:document-rotation="0"
     showgrid="false"
     inkscape:window-width="1920"
     inkscape:window-height="1017"
     inkscape:window-x="-8"
     inkscape:window-y="-8"
     inkscape:window-maximized="1" />
  <metadata
     id="metadata2466">
    <rdf:RDF>
      <cc:Work
         rdf:about="">
        <dc:format>image/svg+xml</dc:format>
        <dc:type
           rdf:resource="http://purl.org/dc/dcmitype/StillImage" />
        <dc:title></dc:title>
      </cc:Work>
    </rdf:RDF>
  </metadata>
  <g
     inkscape:label="Ebene 1"
     inkscape:groupmode="layer"
     id="layer1">
    <g
       id="g26"
       inkscape:export-xdpi="94"
       inkscape:export-ydpi="94"
       style="display:inline;fill:#000080;fill-opacity:1;fill-rule:evenodd;stroke-width:0.416666"
       inkscape:export-filename="C:\Users\Julien\Desktop\Fertige Logos\Logo8.png"
       transform="matrix(0.84666665,0,0,-0.84666665,-202.85096,461.63626)">
      <g
         id="g28"
         clip-path="url(#clipPath32)"
         style="fill:#000080;fill-opacity:1;fill-rule:evenodd;stroke-width:0.416666">
        <g
           id="g34"
           transform="matrix(2,0,0,2,514.38336,326.79955)"
           inkscape:export-xdpi="96"
           inkscape:export-ydpi="96"
           style="display:inline;fill:#000080;fill-opacity:1;fill-rule:evenodd;stroke-width:0.208333">
          <path
             d="m 0,0 0.005,-0.008 z m -29.713,4.086 c -0.002,0.003 -0.004,0.007 -0.006,0.01 0.002,-0.003 0.004,-0.007 0.006,-0.01 m -45.978,44.65 0.015,-0.022 z m -32,-48.783 c 0.756,-1.399 2.213,-2.268 3.803,-2.268 h 36.641 c 1.444,0 2.786,0.716 3.59,1.914 l 24.606,36.865 c 1.61,2.413 4.302,3.853 7.202,3.853 h 1.635 c 2.99,0 5.727,-1.51 7.322,-4.038 L -3.651,5.786 h -27.186 l -10.724,16.217 -4.878,-7.309 9.966,-15.071 c 0.798,-1.211 2.147,-1.938 3.606,-1.938 H 3.2 c 1.576,0 3.027,0.857 3.787,2.238 0.76,1.38 0.709,3.065 -0.134,4.396 l -22.894,36.282 c -3.087,4.895 -8.386,7.817 -14.173,7.817 h -1.635 c -5.613,0 -10.824,-2.788 -13.94,-7.456 L -69.267,5.786 h -27.635 l 27.981,42.775 c 0.934,1.426 0.92,3.261 -0.033,4.674 l -27.849,41.563 h 27.194 l 24.911,-35.912 c 3.131,-4.513 8.279,-7.207 13.771,-7.207 5.734,0 11.007,2.881 14.104,7.707 L 6.833,96.24 c 0.854,1.329 0.915,3.018 0.157,4.407 -0.759,1.388 -2.213,2.251 -3.795,2.251 h -35.868 c -1.458,0 -2.808,-0.727 -3.61,-1.944 l -10.13,-15.359 4.975,-7.171 10.799,16.374 h 26.92 L -23.64,63.761 c -1.601,-2.492 -4.324,-3.981 -7.287,-3.981 -2.838,0 -5.497,1.392 -7.115,3.723 l -26.038,37.536 c -0.811,1.166 -2.138,1.859 -3.552,1.859 h -36.249 c -1.598,0 -3.059,-0.876 -3.813,-2.286 -0.753,-1.409 -0.669,-3.112 0.219,-4.441 l 30.37,-45.324 -30.4,-46.473 c -0.87,-1.328 -0.942,-3.023 -0.186,-4.421"
             style="fill:#000080;fill-opacity:1;fill-rule:evenodd;stroke:none;stroke-width:0.208333"
             id="path36" />
        </g>
      </g>
    </g>
  </g>
</svg>
